<?xml version="1.0" encoding="UTF-8"?><svg id="Layer_2" xmlns="http://www.w3.org/2000/svg" viewBox="0 0 879.24 337.23"><defs><style>.cls-1{fill:#4979f7;}.cls-2,.cls-3{fill:#47dccd;}.cls-4,.cls-5,.cls-6{fill:#2663ea;}.cls-5{font-size:165.4px;}.cls-5,.cls-6{font-family:ArchivoBlack-Regular, 'Archivo Black';}.cls-6{font-size:198.15px;}.cls-3{opacity:.6;}</style></defs><g id="Layer_1-2"><g><path class="cls-4" d="M281.72,62.27h0c0,16.13-13.07,29.2-29.2,29.2H58.45v184.39l-2.18,2.16L.06,333.99V63.07C.06,46.5,13.49,33.07,30.06,33.07H252.52c16.13,0,29.2,13.07,29.2,29.2Z"/><polygon class="cls-1" points=".06 333.95 48.74 285.52 .06 333.99 .06 333.95"/><polygon class="cls-2" points="0 252.21 .06 252.15 .06 333.95 .02 333.99 0 252.21"/><path class="cls-2" d="M230.21,162.56c11.4,11.4,11.41,29.89,0,41.29l-70.28,70.28h-.02l-49.74-49.74-51.73,51.46v-82.09l10.54-10.54h0l41.3-41.3,49.64,49.64,29-29c11.4-11.4,29.89-11.4,41.29,0h0Z"/><polygon class="cls-3" points="58.45 193.76 58.45 275.85 56.28 278.01 .06 333.95 .02 333.99 0 252.21 .06 252.15 58.45 193.76"/><g><text class="cls-6" transform="translate(306.79 167.24)"><tspan x="0" y="0">DE-FI</tspan></text><text class="cls-5" transform="translate(311.05 293.07)"><tspan x="0" y="0">LINES</tspan></text></g></g></g></svg>